<svg width="24" height="24" viewBox="0 0 24 24" fill="none" xmlns="http://www.w3.org/2000/svg">
<rect x="2.74609" y="13.0004" width="18.5077" height="3.00125" rx="1" stroke="currentColor" stroke-width="1.5" stroke-linecap="round" stroke-linejoin="round"/>
<path d="M3.99679 16.0016V21.0037" stroke="currentColor" stroke-width="1.5" stroke-linecap="round" stroke-linejoin="round"/>
<rect x="13.0005" y="16.0016" width="7.00292" height="5.00208" stroke="currentColor" stroke-width="1.5" stroke-linecap="round" stroke-linejoin="round"/>
<path d="M17.2521 18.5027H15.7515" stroke="currentColor" stroke-width="1.5" stroke-linecap="round" stroke-linejoin="round"/>
<path fill-rule="evenodd" clip-rule="evenodd" d="M15.8777 9.99913H8.12252C7.82429 9.99913 7.53827 9.88066 7.3274 9.66978C7.11652 9.4589 6.99805 9.17289 6.99805 8.87466V4.12068C6.99805 3.82246 7.11652 3.53644 7.3274 3.32556C7.53827 3.11469 7.82429 2.99622 8.12252 2.99622H15.8777C16.4988 2.99622 17.0022 3.49966 17.0022 4.12068V8.87466C17.0022 9.49569 16.4988 9.99913 15.8777 9.99913Z" stroke="currentColor" stroke-width="1.5" stroke-linecap="round" stroke-linejoin="round"/>
<path d="M14.0008 13.0004L13.5006 9.99915" stroke="currentColor" stroke-width="1.5" stroke-linecap="round" stroke-linejoin="round"/>
<path d="M9.99913 13.0004L10.4993 9.99915" stroke="currentColor" stroke-width="1.5" stroke-linecap="round" stroke-linejoin="round"/>
</svg>
