<svg width="24" height="24" viewBox="0 0 24 24" fill="none" xmlns="http://www.w3.org/2000/svg">
<path d="M8.99894 15.0012C8.99894 17.2113 7.20733 19.0029 4.99727 19.0029C2.78721 19.0029 0.995605 17.2113 0.995605 15.0012C0.995605 12.7912 2.78721 10.9996 4.99727 10.9996C5.69279 10.9982 6.37625 11.1812 6.9781 11.5298" stroke="currentColor" stroke-width="1.5" stroke-linecap="round" stroke-linejoin="round"/>
<circle cx="19.0031" cy="15.0012" r="4.00167" stroke="currentColor" stroke-width="1.5" stroke-linecap="round" stroke-linejoin="round"/>
<path d="M19.2533 8.49854C19.585 8.49854 19.903 8.36679 20.1376 8.13227C20.3721 7.89775 20.5038 7.57968 20.5038 7.24802V7.24802C20.5038 6.91636 20.3721 6.59828 20.1376 6.36377C19.903 6.12925 19.585 5.9975 19.2533 5.9975H16.002L19.0032 15.0012" stroke="currentColor" stroke-width="1.5" stroke-linecap="round" stroke-linejoin="round"/>
<path fill-rule="evenodd" clip-rule="evenodd" d="M4.99707 15.0013H10.9996L16.0017 7.99835H8.99874L4.99707 15.0013Z" stroke="currentColor" stroke-width="1.5" stroke-linecap="round" stroke-linejoin="round"/>
<path d="M6.99805 5.49728H9.9993" stroke="currentColor" stroke-width="1.5" stroke-linecap="round" stroke-linejoin="round"/>
<path d="M10.9998 15.0013L7.99854 5.49731" stroke="currentColor" stroke-width="1.5" stroke-linecap="round" stroke-linejoin="round"/>
</svg>
