<svg width="24" height="24" viewBox="0 0 24 24" fill="none" xmlns="http://www.w3.org/2000/svg">
<path d="M6.74748 8.99875C6.74748 8.58454 6.4117 8.24875 5.99748 8.24875C5.58327 8.24875 5.24748 8.58454 5.24748 8.99875H6.74748ZM18.7525 8.99875C18.7525 8.58454 18.4167 8.24875 18.0025 8.24875C17.5883 8.24875 17.2525 8.58454 17.2525 8.99875H18.7525ZM14.7508 9.99917C14.7508 9.58495 14.415 9.24917 14.0008 9.24917C13.5866 9.24917 13.2508 9.58495 13.2508 9.99917H14.7508ZM13.2508 17.0021C13.2508 17.4163 13.5866 17.7521 14.0008 17.7521C14.415 17.7521 14.7508 17.4163 14.7508 17.0021H13.2508ZM10.7491 9.99917C10.7491 9.58495 10.4134 9.24917 9.99915 9.24917C9.58493 9.24917 9.24915 9.58495 9.24915 9.99917H10.7491ZM9.24915 17.0021C9.24915 17.4163 9.58493 17.7521 9.99915 17.7521C10.4134 17.7521 10.7491 17.4163 10.7491 17.0021H9.24915ZM4.49686 5.2475C4.08264 5.2475 3.74686 5.58329 3.74686 5.9975C3.74686 6.41171 4.08264 6.7475 4.49686 6.7475V5.2475ZM19.5031 6.7475C19.9173 6.7475 20.2531 6.41171 20.2531 5.9975C20.2531 5.58329 19.9173 5.2475 19.5031 5.2475V6.7475ZM7.2868 5.76033C7.15582 6.15328 7.36819 6.57802 7.76114 6.70901C8.1541 6.84 8.57884 6.62763 8.70983 6.23467L7.2868 5.76033ZM8.54254 4.36482L9.25405 4.60199L9.25411 4.60182L8.54254 4.36482ZM10.4413 2.99625L10.4412 3.74625H10.4413V2.99625ZM13.5586 2.99625V3.74625L13.5596 3.74625L13.5586 2.99625ZM15.4594 4.36482L16.1712 4.12843L16.171 4.12782L15.4594 4.36482ZM15.2899 6.23388C15.4204 6.62699 15.8449 6.83982 16.238 6.70927C16.6311 6.57872 16.844 6.15421 16.7134 5.76111L15.2899 6.23388ZM5.24748 8.99875V19.0029H6.74748V8.99875H5.24748ZM5.24748 19.0029C5.24748 20.5222 6.47907 21.7537 7.99831 21.7537V20.2537C7.3075 20.2537 6.74748 19.6937 6.74748 19.0029H5.24748ZM7.99831 21.7537H16.0016V20.2537H7.99831V21.7537ZM16.0016 21.7537C17.5209 21.7537 18.7525 20.5222 18.7525 19.0029H17.2525C17.2525 19.6937 16.6925 20.2537 16.0016 20.2537V21.7537ZM18.7525 19.0029V8.99875H17.2525V19.0029H18.7525ZM13.2508 9.99917V17.0021H14.7508V9.99917H13.2508ZM9.24915 9.99917V17.0021H10.7491V9.99917H9.24915ZM4.49686 6.7475H19.5031V5.2475H4.49686V6.7475ZM8.70983 6.23467L9.25405 4.60199L7.83103 4.12765L7.2868 5.76033L8.70983 6.23467ZM9.25411 4.60182C9.42431 4.0908 9.90253 3.74612 10.4412 3.74625L10.4415 2.24625C9.25698 2.24596 8.20528 3.00399 7.83097 4.12782L9.25411 4.60182ZM10.4413 3.74625H13.5586V2.24625H10.4413V3.74625ZM13.5596 3.74625C14.0986 3.74558 14.5775 4.09036 14.7479 4.60182L16.171 4.12782C15.7964 3.00303 14.7432 2.24478 13.5577 2.24625L13.5596 3.74625ZM14.7476 4.60121L15.2899 6.23388L16.7134 5.76111L16.1712 4.12843L14.7476 4.60121Z" fill="currentColor"/>
</svg>
