<svg width="24" height="24" viewBox="0 0 24 24" fill="none" xmlns="http://www.w3.org/2000/svg">
<path fill-rule="evenodd" clip-rule="evenodd" d="M8.99875 15.0012L12.1501 14.6121C12.3715 14.585 12.5775 14.4846 12.7353 14.327L20.3695 6.69779C21.2148 5.85204 21.2148 4.48126 20.3695 3.63551V3.63551C19.5237 2.79019 18.153 2.79019 17.3072 3.63551L9.74406 11.1987C9.59088 11.3518 9.49153 11.5505 9.46094 11.7649L8.99875 15.0012Z" stroke="currentColor" stroke-width="1.5" stroke-linecap="round" stroke-linejoin="round"/>
<path d="M13.0004 3.99667H6.99791C4.78785 3.99667 2.99625 5.78827 2.99625 7.99833V17.0021C2.99625 19.2121 4.78785 21.0037 6.99791 21.0037H16.0017C18.2117 21.0037 20.0033 19.2121 20.0033 17.0021V10.9996" stroke="currentColor" stroke-width="1.5" stroke-linecap="round" stroke-linejoin="round"/>
</svg>
