<svg width="24" height="24" viewBox="0 0 24 24" fill="none" xmlns="http://www.w3.org/2000/svg">
<path d="M11.0086 11.2497H12.1591V15.5015" stroke="currentColor" stroke-width="1.5" stroke-linecap="round" stroke-linejoin="round"/>
<path d="M10.9996 15.5015H13.3099" stroke="currentColor" stroke-width="1.5" stroke-linecap="round" stroke-linejoin="round"/>
<path fill-rule="evenodd" clip-rule="evenodd" d="M6.82584 19.8313L4.16773 17.1732C3.41746 16.4228 2.99605 15.4051 2.99625 14.344V9.65602C2.99596 8.5947 3.41779 7.57683 4.16873 6.82684L6.82684 4.16873C7.57683 3.41779 8.5947 2.99596 9.65602 2.99625H14.343C15.4043 2.99596 16.4222 3.41779 17.1722 4.16873L19.8313 6.82784C20.5822 7.57784 21.004 8.5957 21.0037 9.65702V14.343C21.0039 15.4041 20.5825 16.4218 19.8323 17.1722L17.1742 19.8313C16.4235 20.5818 15.4055 21.0037 14.344 21.0037H9.65602C8.59444 21.0037 7.57633 20.5821 6.82584 19.8313Z" stroke="currentColor" stroke-width="1.5" stroke-linecap="round" stroke-linejoin="round"/>
<path d="M12.1003 8.24601C12.1002 8.38406 11.9882 8.49585 11.8501 8.4958C11.7121 8.49574 11.6002 8.38384 11.6001 8.2458C11.6001 8.10775 11.7119 7.99576 11.8499 7.99559C11.9164 7.9955 11.9801 8.02186 12.0271 8.06884C12.0741 8.11582 12.1004 8.17957 12.1003 8.24601" stroke="currentColor" stroke-width="1.5" stroke-linecap="round" stroke-linejoin="round"/>
</svg>
