<svg width="16" height="16" viewBox="0 0 16 16" fill="none" xmlns="http://www.w3.org/2000/svg">
<path d="M7.33907 7.49979H8.10605V10.3343" stroke="currentColor" stroke-width="1.5" stroke-linecap="round" stroke-linejoin="round"/>
<path d="M7.33307 10.3343H8.87327" stroke="currentColor" stroke-width="1.5" stroke-linecap="round" stroke-linejoin="round"/>
<path fill-rule="evenodd" clip-rule="evenodd" d="M4.55058 13.2208L2.7785 11.4488C2.27832 10.9485 1.99738 10.2701 1.99751 9.56265V6.43735C1.99732 5.7298 2.27854 5.05122 2.77917 4.55123L4.55124 2.77916C5.05124 2.27853 5.72981 1.99731 6.43736 1.9975H9.562C10.2695 1.99731 10.9481 2.27853 11.4481 2.77916L13.2209 4.5519C13.7215 5.05189 14.0027 5.73046 14.0025 6.43801V9.56198C14.0026 10.2694 13.7217 10.9479 13.2215 11.4481L11.4494 13.2208C10.949 13.7212 10.2703 14.0025 9.56266 14.0025H6.43736C5.72964 14.0025 5.0509 13.7214 4.55058 13.2208Z" stroke="currentColor" stroke-width="1.5" stroke-linecap="round" stroke-linejoin="round"/>
<path d="M8.06692 5.49735C8.0668 5.58938 7.99214 5.66391 7.90011 5.66387C7.80808 5.66383 7.73349 5.58924 7.73345 5.49721C7.73341 5.40518 7.80794 5.33052 7.89997 5.3304C7.94427 5.33035 7.98676 5.34792 8.01808 5.37924C8.04941 5.41056 8.06698 5.45306 8.06692 5.49735" stroke="currentColor" stroke-width="1.5" stroke-linecap="round" stroke-linejoin="round"/>
</svg>
