<svg width="24" height="24" viewBox="0 0 24 24" fill="none" xmlns="http://www.w3.org/2000/svg">
<path d="M11 5H21" stroke="currentColor" stroke-width="1.5" stroke-linecap="round" stroke-linejoin="round"/>
<path d="M11 12H21" stroke="currentColor" stroke-width="1.5" stroke-linecap="round" stroke-linejoin="round"/>
<path d="M11 19H21" stroke="currentColor" stroke-width="1.5" stroke-linecap="round" stroke-linejoin="round"/>
<path d="M6.41422 10.5858C7.19527 11.3668 7.19527 12.6332 6.41422 13.4142C5.63317 14.1953 4.36684 14.1953 3.58579 13.4142C2.80474 12.6332 2.80474 11.3668 3.58579 10.5858C4.36684 9.80474 5.63317 9.80474 6.41422 10.5858" stroke="currentColor" stroke-width="1.5" stroke-linecap="round" stroke-linejoin="round"/>
<path d="M6.41422 17.5858C7.19527 18.3668 7.19527 19.6332 6.41422 20.4142C5.63317 21.1953 4.36684 21.1953 3.58579 20.4142C2.80474 19.6332 2.80474 18.3668 3.58579 17.5858C4.36684 16.8047 5.63317 16.8047 6.41422 17.5858" stroke="currentColor" stroke-width="1.5" stroke-linecap="round" stroke-linejoin="round"/>
<path d="M3.5 3.5L6.5 6.5" stroke="currentColor" stroke-width="1.5" stroke-linecap="round" stroke-linejoin="round"/>
<path d="M3.5 6.5L6.5 3.5" stroke="currentColor" stroke-width="1.5" stroke-linecap="round" stroke-linejoin="round"/>
</svg>
