<svg width="24" height="24" viewBox="0 0 24 24" fill="none" xmlns="http://www.w3.org/2000/svg">
<path fill-rule="evenodd" clip-rule="evenodd" d="M4.506 10.6982V10.6982C3.72954 9.82268 3.60047 8.54849 4.18557 7.535L4.22596 7.465C4.81108 6.45153 5.97906 5.92618 7.12555 6.16077H7.12566C7.59563 6.25694 8.08456 6.1776 8.5 5.93774V5.93774C8.91543 5.69789 9.2286 5.31414 9.3803 4.85906V4.85906C9.75038 3.74885 10.7894 3 11.9596 3H12.0404C13.2107 3 14.2496 3.74885 14.6197 4.85906V4.85906C14.7714 5.31414 15.0846 5.69788 15.5 5.93773V5.93773C15.9154 6.1776 16.4044 6.25695 16.8744 6.16078H16.8745C18.0209 5.92621 19.1889 6.45156 19.774 7.465L19.8144 7.535C20.3995 8.54849 20.2705 9.82271 19.494 10.6983V10.6983C19.1757 11.0572 19 11.5203 19 12V12C19 12.4797 19.1758 12.9428 19.4941 13.3018V13.3018C20.2705 14.1773 20.3996 15.4516 19.8144 16.465L19.774 16.5351C19.1889 17.5485 18.0209 18.0739 16.8745 17.8393L16.8742 17.8392C16.4043 17.7431 15.9154 17.8224 15.5 18.0622V18.0622C15.0846 18.302 14.7714 18.6858 14.6197 19.1409V19.1409C14.2496 20.2511 13.2106 21 12.0403 21H11.9597C10.7894 21 9.75039 20.2511 9.38029 19.1408V19.1408C9.2286 18.6858 8.91544 18.302 8.5 18.0622V18.0622C8.08461 17.8224 7.59576 17.743 7.12585 17.8392L7.12555 17.8392C5.97907 18.0738 4.81111 17.5485 4.226 16.535L4.1856 16.465C3.60046 15.4515 3.72952 14.1773 4.50598 13.3017V13.3017C4.82425 12.9428 4.99999 12.4797 5 12V12C5.00001 11.5203 4.82427 11.0572 4.506 10.6982Z" stroke="currentColor" stroke-width="1.5" stroke-linecap="round" stroke-linejoin="round"/>
<circle cx="12" cy="12" r="3" stroke="currentColor" stroke-width="1.5" stroke-linecap="round" stroke-linejoin="round"/>
</svg>
