<svg width="24" height="24" viewBox="0 0 24 24" fill="none" xmlns="http://www.w3.org/2000/svg">
<path d="M13.146 15L6 15C4.343 15 3 13.657 3 12V12C3 10.343 4.343 9 6 9L13.146 9" stroke="currentColor" stroke-width="1.5" stroke-linecap="round" stroke-linejoin="round"/>
<path fill-rule="evenodd" clip-rule="evenodd" d="M16.5 16.5C18.985 16.5 21 14.485 21 12C21 9.515 18.985 7.5 16.5 7.5C14.015 7.5 12 9.515 12 12C12 14.485 14.015 16.5 16.5 16.5Z" fill="currentColor"/>
<path fill-rule="evenodd" clip-rule="evenodd" d="M16.5 16.5C18.985 16.5 21 14.485 21 12C21 9.515 18.985 7.5 16.5 7.5C14.015 7.5 12 9.515 12 12C12 14.485 14.015 16.5 16.5 16.5Z" stroke="currentColor" stroke-width="1.5" stroke-linecap="round" stroke-linejoin="round"/>
</svg>
